<svg xmlns="http://www.w3.org/2000/svg" viewBox="0 0 512 512" role="img" aria-label="KCords icon">
  <defs>
    <linearGradient id="bg" x1="0" y1="0" x2="1" y2="1">
      <stop offset="0%" stop-color="#0f172a"/>
      <stop offset="100%" stop-color="#111827"/>
    </linearGradient>
    <linearGradient id="accent" x1="0" y1="0" x2="1" y2="1">
      <stop offset="0%" stop-color="#f59e0b"/>
      <stop offset="100%" stop-color="#f97316"/>
    </linearGradient>
  </defs>
  <rect width="512" height="512" rx="104" fill="url(#bg)"/>
  <rect x="96" y="120" width="320" height="272" rx="28" fill="#0b1020" stroke="#334155" stroke-width="8"/>
  <g stroke="#1f2937" stroke-width="4">
    <line x1="128" y1="160" x2="384" y2="160"/>
    <line x1="128" y1="200" x2="384" y2="200"/>
    <line x1="128" y1="240" x2="384" y2="240"/>
    <line x1="128" y1="280" x2="384" y2="280"/>
    <line x1="128" y1="320" x2="384" y2="320"/>
    <line x1="128" y1="360" x2="384" y2="360"/>
  </g>
  <g fill="url(#accent)">
    <circle cx="176" cy="200" r="12"/>
    <circle cx="224" cy="240" r="12"/>
    <circle cx="272" cy="280" r="12"/>
    <circle cx="320" cy="240" r="12"/>
    <circle cx="368" cy="200" r="12"/>
  </g>
  <path d="M74 74h64v40H74zM374 398h64v40h-64z" fill="#f59e0b" opacity="0.7"/>
</svg>
